<svg width="24" height="24" viewBox="0 0 24 24" fill="none" xmlns="http://www.w3.org/2000/svg">
<g clip-path="url(#clip0)">
<path d="M20.6611 19.3764C10.9459 24 4.91656 20.1316 1.05699 17.782C0.818161 17.6339 0.412236 17.8166 0.764432 18.2211C2.05025 19.7802 6.26414 23.538 11.7645 23.538C17.2686 23.538 20.5431 20.5347 20.9527 20.0108C21.3595 19.4913 21.0722 19.2048 20.661 19.3764H20.6611ZM23.3895 17.8696C23.1286 17.5298 21.8031 17.4665 20.9689 17.569C20.1335 17.6685 18.8794 18.1791 18.9884 18.4857C19.0444 18.6006 19.1586 18.549 19.7325 18.4974C20.308 18.44 21.9203 18.2365 22.2562 18.6757C22.5938 19.1179 21.742 21.2244 21.5865 21.5642C21.4362 21.9039 21.6439 21.9915 21.9262 21.7652C22.2046 21.5391 22.7087 20.9533 23.0469 20.1244C23.3829 19.2909 23.5877 18.1283 23.3894 17.8696H23.3895Z" fill="black"/>
<path fill-rule="evenodd" clip-rule="evenodd" d="M14.1287 9.94198C14.1287 11.1551 14.1593 12.1669 13.5462 13.2442C13.0512 14.1202 12.2673 14.6589 11.3913 14.6589C10.1956 14.6589 9.49927 13.7479 9.49927 12.4034C9.49927 9.74922 11.8774 9.2675 14.1287 9.2675V9.94198ZM17.2689 17.5321C17.063 17.716 16.7652 17.7292 16.5331 17.6065C15.4995 16.7481 15.3155 16.3495 14.7462 15.5305C13.0381 17.2737 11.8293 17.7948 9.61319 17.7948C6.99411 17.7948 4.95312 16.1787 4.95312 12.9421C4.95312 10.415 6.32406 8.69374 8.27291 7.8529C9.96354 7.10826 12.3242 6.97689 14.1287 6.77111V6.36814C14.1287 5.62793 14.1856 4.75201 13.752 4.11261C13.3709 3.53885 12.6439 3.30233 12.0044 3.30233C10.8176 3.30233 9.75767 3.91108 9.49927 5.17243C9.44665 5.4528 9.24087 5.72874 8.96059 5.74185L5.93854 5.41781C5.68457 5.36076 5.40429 5.15498 5.47436 4.76512C6.17072 1.10376 9.4773 -1.54972e-06 12.438 -1.54972e-06C13.9534 -1.54972e-06 15.933 0.402969 17.1287 1.55049C18.6441 2.96509 18.4995 4.85273 18.4995 6.90682V11.7596C18.4995 13.218 19.1039 13.8574 19.6733 14.6458C19.8747 14.9261 19.9186 15.2634 19.6645 15.4735C19.0294 16.0034 17.8995 16.9889 17.2776 17.5408L17.2688 17.5321" fill="black"/>
<path d="M20.6611 19.3764C10.9459 24 4.91656 20.1316 1.05699 17.782C0.818161 17.6339 0.412236 17.8166 0.764432 18.2211C2.05025 19.7802 6.26414 23.538 11.7645 23.538C17.2686 23.538 20.5431 20.5347 20.9527 20.0108C21.3595 19.4913 21.0722 19.2048 20.661 19.3764H20.6611ZM23.3895 17.8696C23.1286 17.5298 21.8031 17.4665 20.9689 17.569C20.1335 17.6685 18.8794 18.1791 18.9884 18.4857C19.0444 18.6006 19.1586 18.549 19.7325 18.4974C20.308 18.44 21.9203 18.2365 22.2562 18.6757C22.5938 19.1179 21.742 21.2244 21.5865 21.5642C21.4362 21.9039 21.6439 21.9915 21.9262 21.7652C22.2046 21.5391 22.7087 20.9533 23.0469 20.1244C23.3829 19.2909 23.5877 18.1283 23.3894 17.8696H23.3895Z" fill="black"/>
<path fill-rule="evenodd" clip-rule="evenodd" d="M14.1287 9.94198C14.1287 11.1551 14.1593 12.1669 13.5462 13.2442C13.0512 14.1202 12.2673 14.6589 11.3913 14.6589C10.1956 14.6589 9.49927 13.7479 9.49927 12.4034C9.49927 9.74922 11.8774 9.2675 14.1287 9.2675V9.94198ZM17.2689 17.5321C17.063 17.716 16.7652 17.7292 16.5331 17.6065C15.4995 16.7481 15.3155 16.3495 14.7462 15.5305C13.0381 17.2737 11.8293 17.7948 9.61319 17.7948C6.99411 17.7948 4.95312 16.1787 4.95312 12.9421C4.95312 10.415 6.32406 8.69374 8.27291 7.8529C9.96354 7.10826 12.3242 6.97689 14.1287 6.77111V6.36814C14.1287 5.62793 14.1856 4.75201 13.752 4.11261C13.3709 3.53885 12.6439 3.30233 12.0044 3.30233C10.8176 3.30233 9.75767 3.91108 9.49927 5.17243C9.44665 5.4528 9.24087 5.72874 8.96059 5.74185L5.93854 5.41781C5.68457 5.36076 5.40429 5.15498 5.47436 4.76512C6.17072 1.10376 9.4773 -1.54972e-06 12.438 -1.54972e-06C13.9534 -1.54972e-06 15.933 0.402969 17.1287 1.55049C18.6441 2.96509 18.4995 4.85273 18.4995 6.90682V11.7596C18.4995 13.218 19.1039 13.8574 19.6733 14.6458C19.8747 14.9261 19.9186 15.2634 19.6645 15.4735C19.0294 16.0034 17.8995 16.9889 17.2776 17.5408L17.2688 17.5321" fill="black"/>
</g>
<defs>
<clipPath id="clip0">
<rect width="24" height="24" fill="white"/>
</clipPath>
</defs>
</svg>
