<svg width="80" height="19" viewBox="0 0 80 19" fill="none" xmlns="http://www.w3.org/2000/svg">
<path d="M6.8579 9.59942V15.1706C6.8579 16.0903 6.90654 16.6651 7.00381 16.8951C7.10993 17.125 7.3089 17.3284 7.60073 17.5052C7.9014 17.6733 8.30376 17.7573 8.80783 17.7573H9.40474V18.2481H0V17.7573H0.596916C1.11866 17.7573 1.53872 17.6644 1.85707 17.4787C2.08699 17.3549 2.26386 17.1427 2.38766 16.842C2.48494 16.6298 2.53358 16.0726 2.53358 15.1706V3.33843C2.53358 2.41874 2.48494 1.84393 2.38766 1.61401C2.29039 1.38409 2.09142 1.18511 1.79075 1.01709C1.49892 0.840229 1.10098 0.751796 0.596916 0.751796H0V0.260999H9.40474V0.751796H8.80783C8.28608 0.751796 7.86603 0.84465 7.54767 1.03036C7.31775 1.15416 7.13646 1.3664 7.00381 1.66707C6.90654 1.8793 6.8579 2.43643 6.8579 3.33843V8.43211H13.2117V3.33843C13.2117 2.41874 13.1631 1.84393 13.0658 1.61401C12.9686 1.38409 12.7696 1.18511 12.4689 1.01709C12.1682 0.840229 11.7659 0.751796 11.2618 0.751796H10.6782V0.260999H20.0696V0.751796H19.486C18.9554 0.751796 18.5353 0.84465 18.2258 1.03036C17.9959 1.15416 17.8146 1.3664 17.682 1.66707C17.5847 1.8793 17.5361 2.43643 17.5361 3.33843V15.1706C17.5361 16.0903 17.5847 16.6651 17.682 16.8951C17.7793 17.125 17.9782 17.3284 18.2789 17.5052C18.5796 17.6733 18.9819 17.7573 19.486 17.7573H20.0696V18.2481H10.6782V17.7573H11.2618C11.7924 17.7573 12.2125 17.6644 12.522 17.4787C12.7519 17.3549 12.9332 17.1427 13.0658 16.842C13.1631 16.6298 13.2117 16.0726 13.2117 15.1706V9.59942H6.8579Z" fill="black"/>
<path d="M31.0662 0.00896775C33.9314 -0.0971506 36.2571 0.738532 38.0434 2.51601C39.8386 4.2935 40.7362 6.51756 40.7362 9.18821C40.7362 11.4698 40.0685 13.4772 38.7332 15.2104C36.9646 17.5097 34.4664 18.6593 31.2386 18.6593C28.002 18.6593 25.4994 17.5627 23.7307 15.3696C22.3335 13.6363 21.6349 11.5803 21.6349 9.20147C21.6349 6.53083 22.5413 4.30676 24.3542 2.52928C26.1759 0.742953 28.4132 -0.0971506 31.0662 0.00896775ZM31.2253 0.857915C29.5805 0.857915 28.3292 1.69802 27.4714 3.37823C26.7728 4.75777 26.4235 6.73864 26.4235 9.32086C26.4235 12.3894 26.9629 14.6577 28.0418 16.1257C28.7935 17.1515 29.8458 17.6644 31.1988 17.6644C32.1097 17.6644 32.8702 17.4433 33.4804 17.0012C34.2586 16.4352 34.8643 15.5332 35.2976 14.2952C35.7309 13.0483 35.9476 11.4255 35.9476 9.42697C35.9476 7.04815 35.7265 5.27067 35.2844 4.09453C34.8422 2.90954 34.2762 2.07385 33.5865 1.58748C32.9055 1.1011 32.1185 0.857915 31.2253 0.857915Z" fill="black"/>
<path d="M58.8692 11.934L58.1927 18.2481H42.2219V17.7573H42.8188C43.3405 17.7573 43.7606 17.6644 44.0789 17.4787C44.3088 17.3549 44.4857 17.1427 44.6095 16.842C44.7068 16.6298 44.7554 16.0726 44.7554 15.1706V3.33843C44.7554 2.41874 44.7068 1.84393 44.6095 1.61401C44.5122 1.38409 44.3133 1.18511 44.0126 1.01709C43.7208 0.840229 43.3228 0.751796 42.8188 0.751796H42.2219V0.260999H51.8123V0.751796H51.0297C50.5079 0.751796 50.0879 0.84465 49.7695 1.03036C49.5396 1.15416 49.3583 1.3664 49.2257 1.66707C49.1284 1.8793 49.0798 2.43643 49.0798 3.33843V14.7992C49.0798 15.7189 49.1328 16.307 49.2389 16.5634C49.3451 16.811 49.5529 16.9968 49.8624 17.1206C50.0835 17.2001 50.6185 17.2399 51.4674 17.2399H52.9663C53.9214 17.2399 54.7173 17.0719 55.354 16.7359C55.9907 16.3998 56.539 15.8692 56.9988 15.1441C57.4675 14.419 57.9097 13.3489 58.3253 11.934H58.8692Z" fill="black"/>
<path d="M70.33 0.00896775C73.1952 -0.0971506 75.5209 0.738532 77.3072 2.51601C79.1024 4.2935 80 6.51756 80 9.18821C80 11.4698 79.3323 13.4772 77.997 15.2104C76.2284 17.5097 73.7302 18.6593 70.5024 18.6593C67.2658 18.6593 64.7632 17.5627 62.9945 15.3696C61.5973 13.6363 60.8987 11.5803 60.8987 9.20147C60.8987 6.53083 61.8051 4.30676 63.618 2.52928C65.4397 0.742953 67.677 -0.0971506 70.33 0.00896775ZM70.4891 0.857915C68.8443 0.857915 67.593 1.69802 66.7352 3.37823C66.0366 4.75777 65.6873 6.73864 65.6873 9.32086C65.6873 12.3894 66.2267 14.6577 67.3056 16.1257C68.0573 17.1515 69.1096 17.6644 70.4626 17.6644C71.3735 17.6644 72.134 17.4433 72.7442 17.0012C73.5224 16.4352 74.1281 15.5332 74.5614 14.2952C74.9948 13.0483 75.2114 11.4255 75.2114 9.42697C75.2114 7.04815 74.9903 5.27067 74.5482 4.09453C74.106 2.90954 73.54 2.07385 72.8503 1.58748C72.1693 1.1011 71.3823 0.857915 70.4891 0.857915Z" fill="black"/>
</svg>
