<svg width="24" height="17" viewBox="0 0 24 17" fill="none" xmlns="http://www.w3.org/2000/svg">
<path fill-rule="evenodd" clip-rule="evenodd" d="M0 0.291457H3.58331V9.90822C3.58331 11.4301 4.27947 12.3367 4.82996 12.7253C4.24717 13.2433 2.46624 13.6967 1.13865 12.5957C0.355946 11.9468 0 10.8796 0 9.8758V0.291457ZM22.3943 8.27988V7.26926H23.4871V3.72373H22.287C21.8263 1.59509 19.9311 0 17.6647 0C15.0537 0 12.9372 2.11661 12.9372 4.72744V13.0073C13.6811 13.1119 14.5672 12.9943 15.3212 12.3691C16.1038 11.72 16.4597 10.653 16.4597 9.64919V9.34415H18.2494V5.79862H16.4597V4.72744H16.464C16.464 4.06442 17.0015 3.52693 17.6647 3.52693C18.3277 3.52693 18.8673 4.06442 18.8673 4.72744V8.27988C18.8673 10.8907 20.9861 13.0073 23.5969 13.0073V9.4804C22.9339 9.4804 22.3943 8.9429 22.3943 8.27988ZM8.82298 3.72373V8.92716C8.82298 9.22256 8.57789 9.46204 8.27547 9.46204C7.97305 9.46204 7.72796 9.22256 7.72796 8.92716V3.72373H4.18232V9.8435C4.18232 10.9444 4.55567 12.3367 6.2547 12.79C7.95552 13.2438 8.94219 12.3044 8.94219 12.3044C8.8523 12.9233 8.26939 13.3766 7.33041 13.4738C6.61995 13.5472 5.71136 13.3119 5.25815 13.1176V16.3599C6.41301 16.7004 7.6345 16.8105 8.82989 16.5785C10.9993 16.1576 12.3685 14.3443 12.3685 11.932V3.72373H8.82298Z" fill="black"/>
</svg>
