<svg width="24" height="21" viewBox="0 0 24 21" fill="none" xmlns="http://www.w3.org/2000/svg">
<g clip-path="url(#clip0)">
<path d="M20.9539 20.199C20.9539 20.199 19.6658 1.84443 16.8916 1.84443C13.6226 1.84443 13.4738 19.1163 13.4738 19.1163L10.4271 19.1412C10.4271 19.1412 10.2783 1.86937 7.00928 1.86937C4.23506 1.86937 2.94699 20.224 2.94699 20.224L-0.0374146 20.211C-0.0374146 20.211 1.96769 0.225885 7.18226 0.200941C10.6131 0.184313 11.9374 8.80824 11.9374 8.80824C11.9374 8.80824 13.9323 0.184311 16.5084 0.184311C22.7004 0.184311 23.9383 20.211 23.9383 20.211L20.9539 20.199Z" fill="black"/>
<path d="M11.9506 18.7593L10.4272 19.1412L13.474 19.1162L11.9506 18.7593Z" fill="black"/>
<path d="M22.3533 19.8419L20.9666 20.2108H23.9389L22.3533 19.8419Z" fill="black"/>
<path d="M1.34984 19.8419L-0.0368042 20.2108L2.9476 20.2238L1.34984 19.8419Z" fill="black"/>
<path d="M16.7555 1.04521C12.6932 1.04521 11.9502 18.7596 11.9502 18.7596L11.9371 8.80813C11.9371 8.80813 13.932 0.184202 16.5082 0.184202L16.7555 1.04521Z" fill="black"/>
<path d="M6.99689 1.09438C10.9597 1.09438 11.9501 18.7598 11.9501 18.7598L10.4277 19.1413C10.4277 19.1413 10.2789 1.86947 7.00898 1.86947L6.99689 1.09438Z" fill="black"/>
<path d="M1.34984 19.8422C1.34984 19.8422 2.9848 1.0941 6.99687 1.0941L7.18195 0.200762C1.96737 0.225706 -0.0368042 20.2109 -0.0368042 20.2109L1.34984 19.8422Z" fill="black"/>
<path d="M22.3533 19.8422C22.3533 19.8422 20.8671 1.04511 16.7556 1.04511L16.8923 1.84514C19.6656 1.84514 20.9536 20.1988 20.9536 20.1988L22.3533 19.8422Z" fill="black"/>
</g>
<defs>
<clipPath id="clip0">
<rect width="24" height="21" fill="white"/>
</clipPath>
</defs>
</svg>
