<svg width="420" height="139" viewBox="0 0 420 139" fill="none" xmlns="http://www.w3.org/2000/svg">
<mask id="mask0" mask-type="alpha" maskUnits="userSpaceOnUse" x="0" y="0" width="208" height="139">
<path d="M6.41967 124.505C16.803 112.374 24.8844 99.8196 33.0909 87.3813C41.8412 74.1244 41.8658 60.1766 45.1607 46.6313C47.1344 38.4685 51.0038 30.6022 63.3423 24.1135C71.9817 19.5748 82.3425 16.5178 95.2001 14.7538C113.113 12.2962 132.599 12.2459 150.159 9.3767C154.224 8.71264 158.335 7.81765 161.033 6.27477C163.271 4.99159 164.338 3.37952 165.822 1.95526C167.143 0.68735 169.371 0.182341 172.196 0.0484516C180.813 -0.358609 191.881 1.91122 200.827 2.60313C202.716 2.7496 205.135 2.90506 206.797 3.34088C207.983 3.65269 207.948 4.0957 207.884 4.48119C207.39 7.47439 207.699 10.615 205.986 13.5641C204.023 16.9446 199.124 19.2827 192.423 20.7528C180.934 23.2689 166.115 23.4558 153.062 24.4532C140.18 25.4417 127.212 26.5199 114.863 28.4564C104.41 30.0927 94.6133 32.4102 86.3781 35.699C76.0624 39.8226 70.4902 45.5188 67.066 51.2698C58.6543 65.4153 59.3519 80.5754 51.3218 94.9295C47.3272 102.071 42.2658 109.155 37.2742 116.174C33.0007 122.185 28.4399 128.247 22.2788 133.892C20.5452 135.482 18.4299 137.621 14.5708 138.475C12.6977 138.889 10.8081 138.814 9.00063 138.665C6.31709 138.443 3.62124 137.917 2.0107 136.926C-3.32355 133.648 3.29503 127.732 6.41967 124.509" fill="#E3F591"/>
</mask>
<g mask="url(#mask0)">
<rect width="514" height="255" transform="matrix(1 0 0 -1 19 202.042)" fill="#E3F591"/>
</g>
<mask id="mask1" mask-type="alpha" maskUnits="userSpaceOnUse" x="34" y="0" width="208" height="139">
<path d="M40.4197 124.505C50.803 112.374 58.8844 99.8196 67.0909 87.3813C75.8412 74.1244 75.8658 60.1766 79.1607 46.6313C81.1344 38.4685 85.0038 30.6022 97.3423 24.1135C105.982 19.5748 116.342 16.5178 129.2 14.7538C147.113 12.2962 166.599 12.2459 184.159 9.3767C188.224 8.71264 192.335 7.81765 195.033 6.27477C197.271 4.99159 198.338 3.37952 199.822 1.95526C201.143 0.68735 203.371 0.182341 206.196 0.0484516C214.813 -0.358609 225.881 1.91122 234.827 2.60313C236.716 2.7496 239.135 2.90506 240.797 3.34088C241.983 3.65269 241.948 4.0957 241.884 4.48119C241.39 7.47439 241.699 10.615 239.986 13.5641C238.023 16.9446 233.124 19.2827 226.423 20.7528C214.934 23.2689 200.115 23.4558 187.062 24.4532C174.18 25.4417 161.212 26.5199 148.863 28.4564C138.41 30.0927 128.613 32.4102 120.378 35.699C110.062 39.8226 104.49 45.5188 101.066 51.2698C92.6543 65.4153 93.3519 80.5754 85.3218 94.9295C81.3272 102.071 76.2658 109.155 71.2742 116.174C67.0007 122.185 62.4399 128.247 56.2788 133.892C54.5452 135.482 52.4299 137.621 48.5708 138.475C46.6977 138.889 44.8081 138.814 43.0006 138.665C40.3171 138.443 37.6212 137.917 36.0107 136.926C30.6764 133.648 37.295 127.732 40.4197 124.509" fill="#E3F591"/>
</mask>
<g mask="url(#mask1)">
<rect width="514" height="255" transform="matrix(1 0 0 -1 53 202.042)" fill="#E3F591"/>
</g>
<mask id="mask2" mask-type="alpha" maskUnits="userSpaceOnUse" x="68" y="0" width="208" height="139">
<path d="M74.4197 124.505C84.803 112.374 92.8844 99.8196 101.091 87.3813C109.841 74.1244 109.866 60.1766 113.161 46.6313C115.134 38.4685 119.004 30.6022 131.342 24.1135C139.982 19.5748 150.342 16.5178 163.2 14.7538C181.113 12.2962 200.599 12.2459 218.159 9.3767C222.224 8.71264 226.335 7.81765 229.033 6.27477C231.271 4.99159 232.338 3.37952 233.822 1.95526C235.143 0.68735 237.371 0.182341 240.196 0.0484516C248.813 -0.358609 259.881 1.91122 268.827 2.60313C270.716 2.7496 273.135 2.90506 274.797 3.34088C275.983 3.65269 275.948 4.0957 275.884 4.48119C275.39 7.47439 275.699 10.615 273.986 13.5641C272.023 16.9446 267.124 19.2827 260.423 20.7528C248.934 23.2689 234.115 23.4558 221.062 24.4532C208.18 25.4417 195.212 26.5199 182.863 28.4564C172.41 30.0927 162.613 32.4102 154.378 35.699C144.062 39.8226 138.49 45.5188 135.066 51.2698C126.654 65.4153 127.352 80.5754 119.322 94.9295C115.327 102.071 110.266 109.155 105.274 116.174C101.001 122.185 96.4399 128.247 90.2788 133.892C88.5452 135.482 86.4299 137.621 82.5708 138.475C80.6977 138.889 78.8081 138.814 77.0006 138.665C74.3171 138.443 71.6212 137.917 70.0107 136.926C64.6764 133.648 71.295 127.732 74.4197 124.509" fill="#E3F591"/>
</mask>
<g mask="url(#mask2)">
<rect width="514" height="255" transform="matrix(1 0 0 -1 87 202.042)" fill="#E3F591"/>
</g>
<mask id="mask3" mask-type="alpha" maskUnits="userSpaceOnUse" x="102" y="0" width="208" height="139">
<path d="M108.42 124.505C118.803 112.374 126.884 99.8196 135.091 87.3813C143.841 74.1244 143.866 60.1766 147.161 46.6313C149.134 38.4685 153.004 30.6022 165.342 24.1135C173.982 19.5748 184.342 16.5178 197.2 14.7538C215.113 12.2962 234.599 12.2459 252.159 9.3767C256.224 8.71264 260.335 7.81765 263.033 6.27477C265.271 4.99159 266.338 3.37952 267.822 1.95526C269.143 0.68735 271.371 0.182341 274.196 0.0484516C282.813 -0.358609 293.881 1.91122 302.827 2.60313C304.716 2.7496 307.135 2.90506 308.797 3.34088C309.983 3.65269 309.948 4.0957 309.884 4.48119C309.39 7.47439 309.699 10.615 307.986 13.5641C306.023 16.9446 301.124 19.2827 294.423 20.7528C282.934 23.2689 268.115 23.4558 255.062 24.4532C242.18 25.4417 229.212 26.5199 216.863 28.4564C206.41 30.0927 196.613 32.4102 188.378 35.699C178.062 39.8226 172.49 45.5188 169.066 51.2698C160.654 65.4153 161.352 80.5754 153.322 94.9295C149.327 102.071 144.266 109.155 139.274 116.174C135.001 122.185 130.44 128.247 124.279 133.892C122.545 135.482 120.43 137.621 116.571 138.475C114.698 138.889 112.808 138.814 111.001 138.665C108.317 138.443 105.621 137.917 104.011 136.926C98.6764 133.648 105.295 127.732 108.42 124.509" fill="#E3F591"/>
</mask>
<g mask="url(#mask3)">
<rect width="514" height="255" transform="matrix(1 0 0 -1 121 202.042)" fill="#E3F591"/>
</g>
<mask id="mask4" mask-type="alpha" maskUnits="userSpaceOnUse" x="136" y="0" width="208" height="139">
<path d="M142.42 124.505C152.803 112.374 160.884 99.8196 169.091 87.3813C177.841 74.1244 177.866 60.1766 181.161 46.6313C183.134 38.4685 187.004 30.6022 199.342 24.1135C207.982 19.5748 218.342 16.5178 231.2 14.7538C249.113 12.2962 268.599 12.2459 286.159 9.3767C290.224 8.71264 294.335 7.81765 297.033 6.27477C299.271 4.99159 300.338 3.37952 301.822 1.95526C303.143 0.68735 305.371 0.182341 308.196 0.0484516C316.813 -0.358609 327.881 1.91122 336.827 2.60313C338.716 2.7496 341.135 2.90506 342.797 3.34088C343.983 3.65269 343.948 4.0957 343.884 4.48119C343.39 7.47439 343.699 10.615 341.986 13.5641C340.023 16.9446 335.124 19.2827 328.423 20.7528C316.934 23.2689 302.115 23.4558 289.062 24.4532C276.18 25.4417 263.212 26.5199 250.863 28.4564C240.41 30.0927 230.613 32.4102 222.378 35.699C212.062 39.8226 206.49 45.5188 203.066 51.2698C194.654 65.4153 195.352 80.5754 187.322 94.9295C183.327 102.071 178.266 109.155 173.274 116.174C169.001 122.185 164.44 128.247 158.279 133.892C156.545 135.482 154.43 137.621 150.571 138.475C148.698 138.889 146.808 138.814 145.001 138.665C142.317 138.443 139.621 137.917 138.011 136.926C132.676 133.648 139.295 127.732 142.42 124.509" fill="#E3F591"/>
</mask>
<g mask="url(#mask4)">
<rect width="514" height="255" transform="matrix(1 0 0 -1 155 202.042)" fill="#E3F591"/>
</g>
<mask id="mask5" mask-type="alpha" maskUnits="userSpaceOnUse" x="170" y="0" width="208" height="139">
<path d="M176.42 124.505C186.803 112.374 194.884 99.8196 203.091 87.3813C211.841 74.1244 211.866 60.1766 215.161 46.6313C217.134 38.4685 221.004 30.6022 233.342 24.1135C241.982 19.5748 252.342 16.5178 265.2 14.7538C283.113 12.2962 302.599 12.2459 320.159 9.3767C324.224 8.71264 328.335 7.81765 331.033 6.27477C333.271 4.99159 334.338 3.37952 335.822 1.95526C337.143 0.68735 339.371 0.182341 342.196 0.0484516C350.813 -0.358609 361.881 1.91122 370.827 2.60313C372.716 2.7496 375.135 2.90506 376.797 3.34088C377.983 3.65269 377.948 4.0957 377.884 4.48119C377.39 7.47439 377.699 10.615 375.986 13.5641C374.023 16.9446 369.124 19.2827 362.423 20.7528C350.934 23.2689 336.115 23.4558 323.062 24.4532C310.18 25.4417 297.212 26.5199 284.863 28.4564C274.41 30.0927 264.613 32.4102 256.378 35.699C246.062 39.8226 240.49 45.5188 237.066 51.2698C228.654 65.4153 229.352 80.5754 221.322 94.9295C217.327 102.071 212.266 109.155 207.274 116.174C203.001 122.185 198.44 128.247 192.279 133.892C190.545 135.482 188.43 137.621 184.571 138.475C182.698 138.889 180.808 138.814 179.001 138.665C176.317 138.443 173.621 137.917 172.011 136.926C166.676 133.648 173.295 127.732 176.42 124.509" fill="#E3F591"/>
</mask>
<g mask="url(#mask5)">
<rect width="514" height="255" transform="matrix(1 0 0 -1 189 202.042)" fill="#E3F591"/>
</g>
<mask id="mask6" mask-type="alpha" maskUnits="userSpaceOnUse" x="204" y="0" width="208" height="139">
<path d="M210.42 124.505C220.803 112.374 228.884 99.8196 237.091 87.3813C245.841 74.1244 245.866 60.1766 249.161 46.6313C251.134 38.4685 255.004 30.6022 267.342 24.1135C275.982 19.5748 286.342 16.5178 299.2 14.7538C317.113 12.2962 336.599 12.2459 354.159 9.3767C358.224 8.71264 362.335 7.81765 365.033 6.27477C367.271 4.99159 368.338 3.37952 369.822 1.95526C371.143 0.68735 373.371 0.182341 376.196 0.0484516C384.813 -0.358609 395.881 1.91122 404.827 2.60313C406.716 2.7496 409.135 2.90506 410.797 3.34088C411.983 3.65269 411.948 4.0957 411.884 4.48119C411.39 7.47439 411.699 10.615 409.986 13.5641C408.023 16.9446 403.124 19.2827 396.423 20.7528C384.934 23.2689 370.115 23.4558 357.062 24.4532C344.18 25.4417 331.212 26.5199 318.863 28.4564C308.41 30.0927 298.613 32.4102 290.378 35.699C280.062 39.8226 274.49 45.5188 271.066 51.2698C262.654 65.4153 263.352 80.5754 255.322 94.9295C251.327 102.071 246.266 109.155 241.274 116.174C237.001 122.185 232.44 128.247 226.279 133.892C224.545 135.482 222.43 137.621 218.571 138.475C216.698 138.889 214.808 138.814 213.001 138.665C210.317 138.443 207.621 137.917 206.011 136.926C200.676 133.648 207.295 127.732 210.42 124.509" fill="#E3F591"/>
</mask>
<g mask="url(#mask6)">
<rect width="514" height="255" transform="matrix(1 0 0 -1 223 202.042)" fill="#E3F591"/>
</g>
<mask id="mask7" mask-type="alpha" maskUnits="userSpaceOnUse" x="212" y="0" width="208" height="139">
<path d="M218.42 124.505C228.803 112.374 236.884 99.8196 245.091 87.3813C253.841 74.1244 253.866 60.1766 257.161 46.6313C259.134 38.4685 263.004 30.6022 275.342 24.1135C283.982 19.5748 294.342 16.5178 307.2 14.7538C325.113 12.2962 344.599 12.2459 362.159 9.3767C366.224 8.71264 370.335 7.81765 373.033 6.27477C375.271 4.99159 376.338 3.37952 377.822 1.95526C379.143 0.68735 381.371 0.182341 384.196 0.0484516C392.813 -0.358609 403.881 1.91122 412.827 2.60313C414.716 2.7496 417.135 2.90506 418.797 3.34088C419.983 3.65269 419.948 4.0957 419.884 4.48119C419.39 7.47439 419.699 10.615 417.986 13.5641C416.023 16.9446 411.124 19.2827 404.423 20.7528C392.934 23.2689 378.115 23.4558 365.062 24.4532C352.18 25.4417 339.212 26.5199 326.863 28.4564C316.41 30.0927 306.613 32.4102 298.378 35.699C288.062 39.8226 282.49 45.5188 279.066 51.2698C270.654 65.4153 271.352 80.5754 263.322 94.9295C259.327 102.071 254.266 109.155 249.274 116.174C245.001 122.185 240.44 128.247 234.279 133.892C232.545 135.482 230.43 137.621 226.571 138.475C224.698 138.889 222.808 138.814 221.001 138.665C218.317 138.443 215.621 137.917 214.011 136.926C208.676 133.648 215.295 127.732 218.42 124.509" fill="#E3F591"/>
</mask>
<g mask="url(#mask7)">
<rect width="514" height="255" transform="matrix(1 0 0 -1 231 202.042)" fill="#E3F591"/>
</g>
</svg>
