<svg width="423" height="110" viewBox="0 0 423 110" fill="none" xmlns="http://www.w3.org/2000/svg">
<g clip-path="url(#clip0)">
<path d="M439.05 488.74C450.985 488.989 464.098 507.421 470.886 515.316C484.312 530.925 496.679 547.131 509.251 563.193C521.824 579.254 534.36 595.359 548.202 610.707C557.184 620.671 567.298 632.371 580.252 639.248C607.859 653.894 604.483 609.139 605.289 597.574C607.346 568.155 607.209 534.368 622.181 507.014C631.119 490.685 645.75 484.362 666.849 488.26C673.713 489.518 681.573 493.029 688.326 490.282C695.538 487.35 699.789 480.394 702.659 474.609C713.116 453.511 714.701 429.075 716.351 406.592C718.156 382.348 718.163 357.846 718.682 333.751C718.901 323.534 723.562 312.94 727.369 303.272C732.358 290.598 737.932 278.086 743.331 265.525C755.183 237.888 767.652 209.414 771.039 180.022C773.163 161.614 771.058 141.42 755.557 126.829C747.776 119.503 736.086 115.539 725.716 111.204C713.189 105.956 700.538 100.906 688.216 95.3375C648.534 77.3965 609.886 52.0888 608.604 12.0556C608.408 6.00042 609.475 0.0740866 609.758 -5.94682C609.935 -9.78035 608.862 -13.213 603.989 -14.7221C591.766 -18.5154 572.181 -7.57822 562.356 -3.12439C540.85 6.62758 520.276 17.6878 499.189 28.0161C485.242 34.8499 466.139 46.7652 449.338 46.6079C434.368 46.4676 423.826 29.9723 416.604 20.967C409.843 12.529 400.439 -2.71229 386.413 -3.86337C379.612 -4.42119 373.906 -0.838598 369.462 2.92837C361.689 9.53059 356.155 17.1934 347.314 23.1035C332.81 32.7919 312.946 40.7551 293.653 39.0774C280.284 37.9144 271.625 31.5093 263.382 23.4078C259.916 20.0033 257.47 17.2456 251.753 16.9718C242.676 16.5323 233.016 19.2834 224.554 21.5404C194.274 29.6174 164.927 41.3209 137.488 54.4309C123.777 60.9809 110.097 68.078 98.3448 76.8702C90.629 82.6305 81.4289 90.4183 81.2869 99.3993C81.1101 109.799 85.5041 120.881 88.7576 131.049C94.8377 150.04 101.921 168.818 109.198 187.526C126.032 230.789 144.297 273.672 163.99 316.175C177.887 346.114 191.794 376.683 210.465 404.926C214.212 410.532 218.51 415.748 223.296 420.497C228.408 425.676 230.627 432.032 232.249 438.466C242.333 478.401 233.332 521.81 227.474 561.639C225.99 571.749 224.498 581.859 223.408 592.002C222.469 600.724 220.026 611.142 223.286 619.689C229.703 636.531 254.649 622.327 264.816 616.317C300.62 595.153 331.077 567.578 362.123 542.07C376.908 529.942 391.657 517.719 407.256 506.278C415.363 500.317 428.585 488.522 439.05 488.74Z" stroke="#5BE7C3" stroke-width="2.13799" stroke-miterlimit="10"/>
<path d="M441.19 481.274C453.707 488.16 462.843 500.024 471.463 509.89C483.874 524.086 495.573 538.713 507.621 553.127C519.015 566.756 530.539 580.416 543.525 593.079C551.444 600.801 560.907 610.481 572.749 614.275C598.417 622.507 595.215 580.515 596.066 570.177C598.173 544.475 599.051 515.311 613.041 491.736C621.777 477.016 635.948 471.148 655.425 474.65C662.161 475.861 667.899 477.934 674.663 475.548C682.493 472.789 687.456 466.223 690.983 460.186C702.035 441.279 704.697 418.747 706.946 398.083C709.269 376.735 711.028 354.481 709.947 333.762C709.517 325.477 712.918 316.007 715.542 307.855C719.584 295.318 724.21 282.922 728.531 270.452C737.314 245.112 745.803 219.103 747.169 192.609C748.156 173.481 744.911 153.466 731.33 137.307C717.558 120.931 695.905 113.401 675.358 104.099C639.836 88.0352 596.679 66.4219 589.726 30.5393C588.67 25.0982 589.381 19.898 589.191 14.4772C589.096 11.6893 588.697 8.51147 585.371 7.04236C576.735 3.22751 560.659 13.0059 553.939 16.2736C535.367 25.3031 517.677 35.5096 499.451 44.9931C484.98 52.5258 468.882 62.1106 451.832 64.8297C431.145 68.129 416.873 44.0319 402.492 35.3985C377.555 20.4316 362.737 47.7329 350.499 61.1091C336.448 76.4699 311.08 88.9142 289.988 74.5721C281.922 69.0858 277.174 62.4225 266.571 59.8534C249.989 55.835 230.919 58.3368 214.413 61.0874C189.6 65.2313 165.01 72.0424 142.487 81.4837C126.362 88.2485 101.066 99.4961 102.658 116.624C103.718 128.153 108.109 139.931 111.975 151.206C117.761 168.088 124.401 184.775 131.308 201.375C147.207 239.702 164.814 277.634 184.256 314.856C197.527 340.256 252.315 411.405 254.222 416.721C259.905 432.571 258.553 450.46 257.354 466.682C255.762 488.258 252.224 509.696 248.919 531.12C247.353 541.317 245.477 551.562 244.617 561.823C244.005 569.126 243.424 578.726 248.503 585.221C258.412 597.898 281.809 584.36 291.704 578.765C322.043 561.627 348.434 539.744 375.387 519.261C388.623 509.209 401.836 498.999 416.099 489.914C421.862 486.253 433.458 477.017 441.19 481.274Z" stroke="#5ACEF2" stroke-width="2.13799" stroke-miterlimit="10"/>
<path d="M443.494 477.555C468.458 496.205 487.112 520.186 507.851 542.249C518.264 553.323 533.014 560.553 545.477 570.164C551.957 575.163 560.155 581.405 569.289 582.505C593.724 585.437 591.056 547.593 592.178 536.3C594.353 514.464 596.139 489.784 608.969 470.159C616.811 458.169 629.445 452.413 645.881 454.958C653.174 456.087 659.355 457.756 666.573 455.31C673.886 452.832 679.108 447.498 683.05 442.074C694.381 426.487 698.25 406.943 701.187 389.226C704.606 368.492 706.163 347.493 705.839 326.481C705.563 308.097 712.49 289.924 717.156 272.057C723.335 248.388 728.788 224.276 728.441 199.943C728.16 180.725 723.733 161.286 711.367 144.652C698.773 127.747 679.671 117.388 659.024 107.99C627.812 93.783 585.97 76.0277 574.539 45.8296C572.873 41.4391 572.75 37.3683 572.524 32.8638C572.415 30.6757 572.417 27.8532 569.655 26.7217C563.002 23.9999 549.856 33.4188 545.288 36.0324C530.697 44.3748 516.745 53.449 502.343 62.0097C488.898 70.0004 474.879 78.7155 459.2 83.5574C434.229 91.2584 420.151 65.0422 396.476 65.3693C381.777 65.5731 371.047 76.9234 363.602 85.93C354.449 97.0218 348.282 113.107 331.83 118.453C319.577 122.436 312.598 115.74 303.44 110.519C287.924 101.671 266.704 100.725 248.557 101.309C224.039 102.097 199.097 106.379 176.442 114.005C166.171 117.458 155.478 121.722 147.438 128.131C139.902 134.138 137.9 139.908 139.282 148.128C143.519 173.293 156.088 198.841 167.29 223.095C181.365 253.567 196.966 283.647 214.598 312.872C226.622 332.801 239.355 353.186 256.136 370.783C260.51 375.37 265.269 380.07 271.085 383.47C275.456 386.038 279.082 387.155 281.53 391.405C288.784 403.988 286.537 421.283 285.534 434.616C283.936 455.939 280.285 477.12 276.963 498.28C275.012 510.628 269.141 533.851 282.105 543.956C293.3 552.68 312.808 542.714 322.887 537.625C348.374 524.754 370.835 508.02 393.933 492.533C404.519 485.435 410.859 483.455 422.592 477.645C423.989 476.951 425.6 476.06 427.38 475.226C429.213 474.368 431.24 473.599 433.163 473.406C437.304 473.001 440.416 475.266 443.494 477.555Z" stroke="#5BE7C3" stroke-width="2.13799" stroke-miterlimit="10"/>
<path d="M441.967 470.487C464.029 487.704 482.044 508.299 502.65 526.73C511.889 534.993 521.585 543.346 532.919 549.714C539.014 553.14 546.698 556.797 554.358 556.013C576.346 553.758 574.893 522.646 576.393 510.112C578.597 491.488 580.863 470.087 592.978 453.79C600.911 443.115 612.427 439.258 627.153 441.526C642.95 443.961 654.527 439.315 663.547 428.444C674.846 414.814 679.653 397.45 683.13 381.462C687.293 362.279 689.332 342.696 689.212 323.068C689.09 304.018 693.298 285.636 696.152 266.763C699.931 241.74 702.026 215.882 695.572 190.968C689.954 169.276 677.089 149.551 656.934 134.585C635.897 118.953 609.196 110.936 585.847 98.1369C571.283 90.153 552.027 79.0396 546.561 64.494C544.737 59.6437 547.457 50.9023 538.02 54.5921C532.622 56.7028 527.85 60.7413 523.413 63.9195C516.242 69.0557 509.264 74.3705 502.191 79.596C487.11 90.7342 471.698 102.675 453.926 110.913C431.549 121.294 414.739 105.012 392.203 106.579C380.074 107.42 370.291 114.154 362.574 121.326C357.577 125.965 353.228 131.06 349.164 136.269C344.918 141.707 341.643 148.174 336.194 152.888C328.439 159.604 319.447 156.479 309.595 155.028C292.234 152.47 274.658 151.675 257.137 152.656C235.658 153.855 213.53 157.147 193.904 164.539C186.263 167.415 178.15 171.085 172.967 176.651C167.784 182.218 168.031 188.071 169.455 194.574C173.656 213.864 183.867 233.217 193.543 251.613C205.656 274.637 219.247 297.238 234.778 318.864C245.499 333.792 257.1 348.784 271.765 361.37C276.034 365.031 280.612 368.522 285.741 371.369C289.257 373.325 293.821 374.418 296.442 377.209C304.624 385.94 301.845 403.142 301.189 413.207C299.882 433.294 294.958 453.001 293.503 473.062C292.707 484.009 290.883 501.144 302.132 509.385C312.707 517.135 329.682 510.567 340.072 506.219C360.502 497.675 378.772 486.04 397.804 475.657C405.636 471.389 413.834 466.704 422.74 464.004C430.672 461.603 436.311 466.076 441.967 470.487Z" stroke="#5ACEF2" stroke-width="2.13799" stroke-miterlimit="10"/>
<path d="M441.672 466.34C461.111 480.076 478.292 496.528 498.047 510.364C509.617 518.464 529.063 532.405 545.665 526.575C563.911 520.182 564.802 496.825 566.494 483.34C568.507 467.294 571.204 448.458 582.757 434.891C586.409 430.601 591.21 426.975 597.477 425.51C604.183 423.941 609.995 425.88 616.676 426.233C630.691 426.972 642.067 420.304 649.953 411.357C661.103 398.714 666.544 382.758 670.405 367.664C674.748 350.662 677.054 333.203 677.274 315.656C677.488 298.938 678.221 282.41 679.028 265.687C680.095 243.818 679.349 221.61 672.619 200.265C665.984 179.24 653.204 160.006 634.186 144.746C615.625 129.859 592.807 119.64 569.537 110.634C556.332 105.523 536.612 96.9343 530.097 85.1689C527.196 79.9347 527.488 74.8535 519.624 80.231C509.722 87.0036 501.713 96.2187 493.208 104.112C480.935 115.497 468.421 127.169 453.898 136.653C444.624 142.71 435.68 145.328 423.816 144.698C414.777 144.213 405.855 142.562 396.764 143.166C375.427 144.578 360.582 158.083 346.768 170.01C337.884 177.682 331.087 184.711 318.57 188.525C303.777 193.036 287.736 194.765 272.407 197.686C255.572 200.896 238.054 204.637 223.149 212.016C209.879 218.585 203.84 226.747 207.176 239.168C212.371 258.543 225.654 277.784 237.95 295.116C250.46 312.758 264.569 330.127 281.926 344.865C291.299 352.823 302.37 358.333 312.464 365.429C325.137 374.354 319.946 393.972 318.662 405.661C316.532 425.064 302.011 485.986 345.771 481.085C364.037 479.039 381.015 470.052 397.213 463.54C403.935 460.842 412.014 456.91 419.674 456.404C428.015 455.855 435.819 462.211 441.672 466.34Z" stroke="#FF8062" stroke-width="2.13799" stroke-miterlimit="10"/>
<path d="M440.122 459.237C457.769 469.781 474.396 482.323 493.495 491.437C505.865 497.347 522.423 503.231 535.737 496.102C550.762 488.055 554.543 469.813 556.668 456.398C558.855 442.576 560.78 426.064 572.255 414.932C575.911 411.391 580.809 408.503 586.623 408.049C592.2 407.611 597.742 409.21 603.42 408.808C616.168 407.906 626.765 401.761 634.51 393.736C657.426 369.996 663.041 334.18 664.124 305.086C664.665 290.524 663.384 275.506 662.534 260.826C661.43 241.776 658.692 222.67 651.619 204.401C636.588 165.556 602.234 139.108 559.248 120.313C545.717 114.397 531.047 109.798 520.247 100.704C514.67 96.0164 510.592 96.9508 505.355 101.557C497.17 108.76 490.859 117.607 483.994 125.639C474.231 137.063 464.321 148.732 452.687 158.783C444.668 165.712 436.971 170.596 425.1 171.916C416.636 172.859 408.034 172.458 399.525 172.967C383.36 173.935 367.267 177.919 353.748 185.224C343.033 191.029 333.265 197.991 323.943 205.199C311.888 214.61 298.894 222.75 285.166 229.489C266.191 238.809 231.258 251.763 240.055 274.624C249.762 299.838 275.112 323.747 299.786 340.237C308.071 345.775 318.269 350.379 324.321 357.761C333.368 368.811 332.857 379.859 332.598 392.815C332.216 412.213 326.359 454.337 361.818 455.396C375.867 455.814 389.238 451.058 402.795 448.902C417.978 446.47 428.096 452.036 440.122 459.237Z" stroke="#F1B170" stroke-width="2.13799" stroke-miterlimit="10"/>
<path d="M438.663 451.582C461.717 462.106 499.497 485.472 525.616 468.633C539.422 459.739 544.824 443.684 548.111 430.197C550.769 419.342 551.921 406.217 562.542 398.162C570.35 392.242 581.52 395.119 591.206 392.964C603.216 390.29 613.112 383.852 620.605 375.861C641.548 353.53 648.392 322.102 650.198 294.842C652.071 266.529 646.097 235.198 634.033 208.322C618.988 174.81 589.852 149.4 552.715 131.345C545.86 128.015 538.819 124.972 531.88 121.768C527.222 119.615 522.736 116.464 517.829 114.746C509.648 111.885 502.868 114.976 497.419 120.024C489.573 127.285 483.924 136.272 477.987 144.6C469.862 155.989 461.876 167.637 452.391 178.199C446.009 185.296 439.138 192.722 428.234 195.115C420.797 196.748 412.946 196.98 405.276 196.787C388.829 196.371 375.516 196.852 360.345 202.887C335.438 212.818 312.927 228.359 294.137 244.861C279.391 257.812 256.477 278.312 265.86 297.707C274.26 315.108 294.898 325.553 311.528 337.208C319.613 342.874 326.977 349.209 332.671 356.603C339.849 365.925 342.78 374.635 343.794 385.552C345.503 403.928 345.558 431.589 372.308 437.715C382.179 439.978 392.462 438.956 402.479 440.224C415.727 441.884 427.034 446.272 438.663 451.582Z" stroke="#5BE7C3" stroke-width="2.13799" stroke-miterlimit="10"/>
<path d="M-15.1745 190.542C-32.7661 213.474 -47.4075 239.488 -62.2568 264C-83.9524 299.822 -105.095 336.187 -121.443 373.938C-130.208 394.178 -142.793 420.384 -136.571 442.366C-134.297 450.402 -127.129 457.82 -122.514 465.069C-116.149 475.066 -110.112 485.204 -104.059 495.324C-91.9268 515.625 -79.9212 535.987 -66.9849 555.955C-60.7531 565.571 -52.8581 574.933 -47.5719 584.923C-44.4804 590.761 -46.0906 597.658 -46.3966 603.834C-47.1102 618.143 -48.2432 632.435 -49.2448 646.73C-50.4675 664.215 -51.7499 681.738 -51.6826 699.265C-51.646 707.171 -53.6903 726.494 -45.4576 730.985C-41.0241 733.402 -32.8644 728.023 -29.0885 725.529C-22.1493 720.95 -15.8772 715.661 -9.6677 710.438C4.69307 698.366 18.3889 685.512 34.3809 674.836C42.5997 669.349 52.6545 662.149 63.6845 666.011C74.8251 669.908 84.4189 676.492 95.5161 680.599C108.288 685.327 121.627 687.426 135.218 689.784C145.261 691.532 154.12 695.355 163.345 698.965C173.541 702.954 183.82 707.081 194.598 709.913C201.716 711.785 214.529 714.828 219.157 708.782C225.74 700.191 220.808 683.788 219.08 673.838C216.697 660.088 213.596 646.424 210.959 632.706C209.041 622.748 206.922 612.752 206.851 602.658C206.735 586.388 208.372 570.093 209.914 553.895C212.768 523.899 216.455 494.133 216.967 463.997C217.416 437.595 181.176 375.946 174.855 361.553C162.237 332.823 150.313 303.346 133.338 276.073C128.742 268.696 122.644 257.356 112.994 253.352C107.049 250.881 103.567 251.911 99.8063 246.258C94.6733 238.546 92.773 228.744 90.5612 220.266C87.0008 206.612 84.0233 192.863 80.8222 179.152C74.3655 151.423 66.9997 123.866 59.9297 96.242C57.7926 87.8907 57.4591 77.8248 53.5788 69.833C51.0876 64.6805 47.8341 65.1555 43.8502 69.0432C36.8588 75.8623 32.8786 85.5183 28.8188 93.6459C22.8721 105.551 17.541 117.667 12.2826 129.787C7.02419 141.908 1.92201 154.095 -3.34464 166.221C-6.81954 174.231 -9.68394 183.384 -15.1745 190.542Z" stroke="#FF8062" stroke-width="2.13799" stroke-miterlimit="10"/>
</g>
<defs>
<clipPath id="clip0">
<rect width="110" height="423" fill="white" transform="matrix(0 1 1 0 0 0)"/>
</clipPath>
</defs>
</svg>
