<svg width="24" height="24" viewBox="0 0 24 24" fill="none" xmlns="http://www.w3.org/2000/svg">
<path d="M11.9075 0.0392609C5.35114 0.0392609 0.0358887 5.35436 0.0358887 11.9107C0.0358887 18.4674 5.35114 23.7821 11.9075 23.7821C18.4646 23.7821 23.7793 18.4674 23.7793 11.9107C23.7793 5.35479 18.4646 0.0398279 11.9074 0.0398279L11.9075 0.0392609ZM17.3518 17.1613C17.1391 17.5101 16.6826 17.6207 16.3339 17.4066C13.5466 15.704 10.0377 15.3184 5.90528 16.2626C5.50707 16.3533 5.11014 16.1038 5.01941 15.7054C4.92826 15.3071 5.17677 14.9102 5.57597 14.8194C10.0982 13.7863 13.9772 14.2311 17.1065 16.1435C17.4552 16.3575 17.5658 16.8126 17.3518 17.1613ZM18.8048 13.9289C18.5369 14.3644 17.967 14.5019 17.5318 14.2339C14.3407 12.2725 9.47643 11.7045 5.702 12.8502C5.21249 12.9981 4.69548 12.7222 4.54692 12.2335C4.39948 11.744 4.67549 11.228 5.16415 11.0792C9.47558 9.77098 14.8355 10.4047 18.5 12.6566C18.9353 12.9245 19.0728 13.4942 18.8048 13.9289ZM18.9296 10.5629C15.1034 8.29027 8.79072 8.08131 5.13764 9.19004C4.55103 9.36795 3.93067 9.03679 3.7529 8.45018C3.57513 7.86328 3.90601 7.24335 4.49305 7.06501C8.68653 5.79199 15.6577 6.03794 20.0628 8.65304C20.5916 8.96619 20.7646 9.64764 20.4513 10.1746C20.1394 10.7022 19.4561 10.8762 18.9301 10.5629H18.9296Z" fill="black"/>
</svg>
