<svg width="34" height="34" viewBox="0 0 34 34" fill="none" xmlns="http://www.w3.org/2000/svg">
<path d="M1 2V16.8284C1 17.4654 1.58776 17.9401 2.21056 17.8059L14.999 15.0515C15.4899 14.9458 15.8263 14.4923 15.785 13.9918L14.7899 1.91786C14.7472 1.39918 14.3138 1 13.7933 1H2C1.44772 1 1 1.44772 1 2Z" fill="black"/>
<path d="M15.8039 22.5726L1.80388 25.3726C1.33646 25.466 1 25.8765 1 26.3531V32C1 32.5523 1.44772 33 2 33H16C16.5523 33 17 32.5523 17 32V23.5531C17 22.9221 16.4227 22.4488 15.8039 22.5726Z" fill="black"/>
<path d="M32 1H21.623C21.0003 1 20.5291 1.56286 20.6385 2.17579L25.9957 32.1758C26.0808 32.6527 26.4956 33 26.9801 33H32C32.5523 33 33 32.5523 33 32V2C33 1.44772 32.5523 1 32 1Z" fill="black"/>
<path d="M1 2V16.8284C1 17.4654 1.58776 17.9401 2.21056 17.8059L14.999 15.0515C15.4899 14.9458 15.8263 14.4923 15.785 13.9918L14.7899 1.91786C14.7472 1.39918 14.3138 1 13.7933 1H2C1.44772 1 1 1.44772 1 2Z" stroke="black"/>
<path d="M15.8039 22.5726L1.80388 25.3726C1.33646 25.466 1 25.8765 1 26.3531V32C1 32.5523 1.44772 33 2 33H16C16.5523 33 17 32.5523 17 32V23.5531C17 22.9221 16.4227 22.4488 15.8039 22.5726Z" stroke="black"/>
<path d="M32 1H21.623C21.0003 1 20.5291 1.56286 20.6385 2.17579L25.9957 32.1758C26.0808 32.6527 26.4956 33 26.9801 33H32C32.5523 33 33 32.5523 33 32V2C33 1.44772 32.5523 1 32 1Z" stroke="black"/>
</svg>
