<svg width="35" height="30" viewBox="0 0 35 30" fill="none" xmlns="http://www.w3.org/2000/svg">
<path d="M34.375 4.375V25.625C34.375 27.6929 32.6929 29.375 30.625 29.375H4.375C2.30713 29.375 0.625 27.6929 0.625 25.625V4.375C0.625 2.30713 2.30713 0.625 4.375 0.625H30.625C32.6929 0.625 34.375 2.30713 34.375 4.375Z" fill="#838383"/>
<path d="M0.625 9.375H10L13.125 11.875V18.75L10 21.875H0.625V9.375Z" fill="#838383"/>
<path d="M34.375 9.375H25L21.875 11.875V18.75L25 21.875H34.375V9.375Z" fill="#838383"/>
<path d="M34.375 3.125C34.375 4.16016 33.5352 5 32.5 5H2.5C1.46484 5 0.625 4.16016 0.625 3.125C0.625 1.74316 1.74316 0.625 3.125 0.625H31.875C33.2568 0.625 34.375 1.74316 34.375 3.125Z" fill="#838383"/>
<path d="M17.5 19.375H13.125L10 21.875H0.625L0.681153 26.25L2.88086 29.0625L12.1094 29.375L18.125 23.125V19.375H17.5Z" fill="#838383"/>
<path d="M18.125 23.125L24.3359 29.3359H11.875L18.125 23.125Z" fill="#838383"/>
<path d="M30.625 0H4.375C1.96289 0 0 1.96289 0 4.375V25.625C0 28.0371 1.96289 30 4.375 30H30.625C33.0371 30 35 28.0371 35 25.625V4.375C35 1.96289 33.0371 0 30.625 0ZM12.5 18.3398C12.5 18.833 12.2998 19.3164 11.9507 19.6655L10.9155 20.7007C10.5615 21.0547 10.0903 21.25 9.58984 21.25H1.25V16.25H9.375C9.72168 16.25 10 15.9717 10 15.625C10 15.2783 9.72168 15 9.375 15H1.25V10H9.58984C10.0903 10 10.5615 10.1953 10.9155 10.5493L11.9507 11.5845C12.3047 11.9385 12.5 12.4097 12.5 12.9102V18.3398ZM1.25 25.625V22.5H9.58984C10.4248 22.5 11.2085 22.1753 11.7993 21.5845L12.8345 20.5493C13.0029 20.3809 13.1421 20.1953 13.2642 20H17.5V22.0898C17.5 22.5903 17.3047 23.0615 16.9507 23.4155L11.6162 28.75H4.375C2.65137 28.75 1.25 27.3486 1.25 25.625ZM33.75 25.625C33.75 27.3486 32.3486 28.75 30.625 28.75H24.6338L20.4419 24.5581C20.1978 24.314 19.8022 24.314 19.5581 24.5581C19.314 24.8022 19.314 25.1978 19.5581 25.4419L22.8662 28.75H13.3838L17.8345 24.2993C18.4253 23.7085 18.75 22.9248 18.75 22.0898V20H21.7358C21.8579 20.1953 21.9971 20.3809 22.1655 20.5493L23.2007 21.5845C23.7915 22.1753 24.5752 22.5 25.4102 22.5H33.75V25.625ZM33.75 15H29.375C29.0283 15 28.75 15.2783 28.75 15.625C28.75 15.9717 29.0283 16.25 29.375 16.25H33.75V21.25H25.4102C24.9097 21.25 24.4385 21.0547 24.0845 20.7007L23.0493 19.6655C22.7002 19.3164 22.5 18.833 22.5 18.3398V12.9102C22.5 12.4097 22.6953 11.9385 23.0493 11.5845L24.0845 10.5493C24.4385 10.1953 24.9097 10 25.4102 10H33.75V15ZM25.4102 8.75C24.5752 8.75 23.7915 9.07471 23.2007 9.66553L22.1655 10.7007C21.9971 10.8691 21.8579 11.0547 21.7358 11.25H15.625C15.2783 11.25 15 11.5283 15 11.875C15 12.2217 15.2783 12.5 15.625 12.5H21.2891C21.272 12.6367 21.25 12.771 21.25 12.9102V18.3398C21.25 18.479 21.272 18.6133 21.2891 18.75H13.7109C13.728 18.6133 13.75 18.479 13.75 18.3398V12.9102C13.75 12.0752 13.4253 11.2915 12.8345 10.7007L11.7993 9.66553C11.2085 9.07471 10.4248 8.75 9.58984 8.75H1.25V4.375C1.25 2.65137 2.65137 1.25 4.375 1.25H30.625C32.3486 1.25 33.75 2.65137 33.75 4.375V8.75H25.4102Z" fill="black"/>
<path d="M6.875 3.75C6.52832 3.75 6.25 4.02832 6.25 4.375V5.625C6.25 5.97168 6.52832 6.25 6.875 6.25C7.22168 6.25 7.5 5.97168 7.5 5.625V4.375C7.5 4.02832 7.22168 3.75 6.875 3.75Z" fill="#838383"/>
<path d="M3.75 3.75C3.40332 3.75 3.125 4.02832 3.125 4.375V5.625C3.125 5.97168 3.40332 6.25 3.75 6.25C4.09668 6.25 4.375 5.97168 4.375 5.625V4.375C4.375 4.02832 4.09668 3.75 3.75 3.75Z" fill="#838383"/>
<path d="M16.25 3.75C15.9033 3.75 15.625 4.02832 15.625 4.375V5.625C15.625 5.97168 15.9033 6.25 16.25 6.25C16.5967 6.25 16.875 5.97168 16.875 5.625V4.375C16.875 4.02832 16.5967 3.75 16.25 3.75Z" fill="#838383"/>
<path d="M19.375 3.75C19.0283 3.75 18.75 4.02832 18.75 4.375V5.625C18.75 5.97168 19.0283 6.25 19.375 6.25C19.7217 6.25 20 5.97168 20 5.625V4.375C20 4.02832 19.7217 3.75 19.375 3.75Z" fill="#838383"/>
<path d="M22.5 3.75C22.1533 3.75 21.875 4.02832 21.875 4.375V5.625C21.875 5.97168 22.1533 6.25 22.5 6.25C22.8467 6.25 23.125 5.97168 23.125 5.625V4.375C23.125 4.02832 22.8467 3.75 22.5 3.75Z" fill="#838383"/>
<path d="M25.625 3.75C25.2783 3.75 25 4.02832 25 4.375V5.625C25 5.97168 25.2783 6.25 25.625 6.25C25.9717 6.25 26.25 5.97168 26.25 5.625V4.375C26.25 4.02832 25.9717 3.75 25.625 3.75Z" fill="#838383"/>
<path d="M28.75 3.75C28.4033 3.75 28.125 4.02832 28.125 4.375V5.625C28.125 5.97168 28.4033 6.25 28.75 6.25C29.0967 6.25 29.375 5.97168 29.375 5.625V4.375C29.375 4.02832 29.0967 3.75 28.75 3.75Z" fill="#838383"/>
<path d="M31.875 3.75C31.5283 3.75 31.25 4.02832 31.25 4.375V5.625C31.25 5.97168 31.5283 6.25 31.875 6.25C32.2217 6.25 32.5 5.97168 32.5 5.625V4.375C32.5 4.02832 32.2217 3.75 31.875 3.75Z" fill="#838383"/>
<path d="M10 3.75C9.65332 3.75 9.375 4.02832 9.375 4.375V5.625C9.375 5.97168 9.65332 6.25 10 6.25C10.3467 6.25 10.625 5.97168 10.625 5.625V4.375C10.625 4.02832 10.3467 3.75 10 3.75Z" fill="#838383"/>
<path d="M13.125 3.75C12.7783 3.75 12.5 4.02832 12.5 4.375V5.625C12.5 5.97168 12.7783 6.25 13.125 6.25C13.4717 6.25 13.75 5.97168 13.75 5.625V4.375C13.75 4.02832 13.4717 3.75 13.125 3.75Z" fill="#838383"/>
<path d="M23.75 15.625C23.75 15.9717 24.0283 16.25 24.375 16.25H26.875C27.2217 16.25 27.5 15.9717 27.5 15.625C27.5 15.2783 27.2217 15 26.875 15H24.375C24.0283 15 23.75 15.2783 23.75 15.625Z" fill="#838383"/>
</svg>
