<svg width="32" height="24" viewBox="0 0 32 24" fill="none" xmlns="http://www.w3.org/2000/svg">
<mask id="path-1-inside-1" fill="white">
<rect width="28.2353" height="24" rx="1"/>
</mask>
<rect width="28.2353" height="24" rx="1" stroke="#4C4E4E" stroke-width="4" mask="url(#path-1-inside-1)"/>
<path d="M11.1189 6.12889C11.1855 6.13572 11.2714 6.14287 11.3696 6.14287H31L31 17.8572L11.3696 17.8572C11.2714 17.8572 11.1855 17.8643 11.1189 17.8711L11.221 18.8659L11.1189 17.8711C10.8696 17.8967 9.74831 17.9586 8.71913 17.3105C7.77081 16.7134 6.64703 15.3487 6.64703 12C6.64703 8.65128 7.77081 7.28663 8.71913 6.68948C9.74831 6.0414 10.8696 6.10332 11.1189 6.12889Z" stroke="#4C4E4E" stroke-width="2"/>
<rect x="13.1765" y="10.2857" width="5.64706" height="3.42857" rx="1" fill="#4C4E4E"/>
</svg>
